<?xml version="1.0" encoding="UTF-8"?>
<svg version="1.1" xmlns="http://www.w3.org/2000/svg" width="152" height="152">
<path d="M0 0 C7.14448958 4.1472294 13.17057248 10.16695567 15.89453125 18.11328125 C17.30755255 26.19176664 17.21755291 35.03736452 13.64453125 42.4921875 C13.52464844 43.09675781 13.40476562 43.70132813 13.28125 44.32421875 C13.73757812 44.9275 14.19390625 45.53078125 14.6640625 46.15234375 C18.04248984 50.68955535 16.98397887 56.96874471 16.28125 62.32421875 C14.06168041 68.42803513 10.97411561 73.93560827 5.28125 77.32421875 C4.24605225 78.00621338 3.21085449 78.68820801 2.14428711 79.39086914 C-4.45538082 82.64191091 -11.96992449 81.87707908 -19.15234375 81.8203125 C-20.75602789 81.82046773 -22.3597124 81.8219607 -23.96339417 81.82472229 C-27.31471465 81.82610203 -30.66560497 81.81362146 -34.0168457 81.79077148 C-38.29145481 81.76241098 -42.56534882 81.76512355 -46.84001064 81.7778616 C-50.14909363 81.78485039 -53.45801426 81.7769928 -56.76707649 81.76460457 C-58.34217771 81.76011945 -59.91729654 81.75972728 -61.49239922 81.76366997 C-72.80246325 81.77872975 -82.43922988 81.46361854 -91.0546875 73.19140625 C-96.17500565 67.44607274 -96.19530398 61.79156532 -96.0078125 54.3515625 C-95.45031547 48.51291122 -92.59627863 44.57699208 -88.71875 40.32421875 C-88.05875 40.32421875 -87.39875 40.32421875 -86.71875 40.32421875 C-86.71875 39.66421875 -86.71875 39.00421875 -86.71875 38.32421875 C-86.02007812 38.06769531 -85.32140625 37.81117187 -84.6015625 37.546875 C-79.23841421 35.5076241 -79.23841421 35.5076241 -75.78515625 31.26953125 C-75.52848227 29.74007184 -75.30947296 28.2038993 -75.125 26.6640625 C-74.03614537 20.39267861 -69.24079423 15.48925948 -64.71875 11.32421875 C-64.25984375 10.82921875 -63.8009375 10.33421875 -63.328125 9.82421875 C-58.26668389 5.10675908 -52.00909904 4.13004442 -45.34545898 4.30395508 C-44.23086304 4.3449231 -44.23086304 4.3449231 -43.09375 4.38671875 C-37.27185286 4.59583953 -33.05110009 4.51196994 -28.45703125 0.61328125 C-20.62056645 -5.19802973 -8.37297781 -3.87386149 0 0 Z " fill="#FFFFFF" transform="translate(115.71875,31.67578125)"/>
<path d="M0 0 C6.07371466 4.22379805 11.16840959 9.6802215 13.61328125 16.78125 C15.01254101 24.80932622 15.18330939 33.85351312 11 41 C7.91993464 39.64075377 6.05250755 38.11374043 3.75 35.6875 C-0.7415102 31.57099255 -5.65034171 30.25293183 -11.45214844 28.86206055 C-14.80676347 27.99525055 -16.65534507 27.46131909 -18.765625 24.63671875 C-19.17296875 23.76660156 -19.5803125 22.89648438 -20 22 C-21.11951624 20.45969112 -22.26556292 18.93831029 -23.4375 17.4375 C-24.01371094 16.69371094 -24.58992188 15.94992188 -25.18359375 15.18359375 C-26.98970138 12.9328771 -26.98970138 12.9328771 -29.22265625 10.84765625 C-31 9 -31 9 -31 7 C-32.98 6.34 -34.96 5.68 -37 5 C-35.62721909 1.62465725 -34.4223063 0.3367265 -31.125 -1.1875 C-30.44695312 -1.51105469 -29.76890625 -1.83460937 -29.0703125 -2.16796875 C-19.64986483 -5.95392225 -8.72585985 -5.06518235 0 0 Z " fill="#FDFF8D" transform="translate(118,33)"/>
</svg>
